<svg width="100" height="100" viewBox="0 0 100 100" fill="none" xmlns="http://www.w3.org/2000/svg">
<rect width="100" height="100" fill="#111827"/>
<path d="M37.8849 47.3622H35.2287C35.1529 46.9266 35.0133 46.5407 34.8097 46.2045C34.6061 45.8636 34.3527 45.5748 34.0497 45.3381C33.7467 45.1013 33.401 44.9238 33.0128 44.8054C32.6293 44.6823 32.215 44.6207 31.7699 44.6207C30.9792 44.6207 30.2784 44.8196 29.6676 45.2173C29.0568 45.6103 28.5786 46.188 28.233 46.9503C27.8873 47.7079 27.7145 48.6335 27.7145 49.7273C27.7145 50.84 27.8873 51.7775 28.233 52.5398C28.5833 53.2973 29.0616 53.8703 29.6676 54.2585C30.2784 54.642 30.9768 54.8338 31.7628 54.8338C32.1984 54.8338 32.6056 54.777 32.9844 54.6634C33.3679 54.545 33.7112 54.3722 34.0142 54.1449C34.322 53.9176 34.58 53.6383 34.7884 53.3068C35.0014 52.9754 35.1482 52.5966 35.2287 52.1705L37.8849 52.1847C37.7855 52.8759 37.5701 53.5246 37.2386 54.1307C36.9119 54.7367 36.4834 55.2718 35.9531 55.7358C35.4228 56.1951 34.8026 56.5549 34.0923 56.8153C33.3821 57.071 32.5938 57.1989 31.7273 57.1989C30.4489 57.1989 29.3078 56.9029 28.304 56.3111C27.3002 55.7192 26.5095 54.8646 25.9318 53.7472C25.3542 52.6297 25.0653 51.2898 25.0653 49.7273C25.0653 48.16 25.3565 46.8201 25.9389 45.7074C26.5213 44.59 27.3144 43.7353 28.3182 43.1435C29.322 42.5516 30.4583 42.2557 31.7273 42.2557C32.5369 42.2557 33.2898 42.3693 33.9858 42.5966C34.6818 42.8239 35.3021 43.1577 35.8466 43.598C36.3911 44.0336 36.8385 44.5687 37.1889 45.2031C37.544 45.8329 37.776 46.5526 37.8849 47.3622ZM53.2951 49.7273C53.2951 51.2945 53.0015 52.6368 52.4144 53.7543C51.832 54.867 51.0366 55.7192 50.0281 56.3111C49.0243 56.9029 47.8855 57.1989 46.6119 57.1989C45.3382 57.1989 44.1971 56.9029 43.1886 56.3111C42.1848 55.7145 41.3893 54.8598 40.8022 53.7472C40.2198 52.6297 39.9286 51.2898 39.9286 49.7273C39.9286 48.16 40.2198 46.8201 40.8022 45.7074C41.3893 44.59 42.1848 43.7353 43.1886 43.1435C44.1971 42.5516 45.3382 42.2557 46.6119 42.2557C47.8855 42.2557 49.0243 42.5516 50.0281 43.1435C51.0366 43.7353 51.832 44.59 52.4144 45.7074C53.0015 46.8201 53.2951 48.16 53.2951 49.7273ZM50.646 49.7273C50.646 48.6241 50.4731 47.6937 50.1275 46.9361C49.7866 46.1738 49.3131 45.5985 48.707 45.2102C48.101 44.8172 47.4026 44.6207 46.6119 44.6207C45.8211 44.6207 45.1228 44.8172 44.5167 45.2102C43.9106 45.5985 43.4348 46.1738 43.0891 46.9361C42.7482 47.6937 42.5778 48.6241 42.5778 49.7273C42.5778 50.8305 42.7482 51.7633 43.0891 52.5256C43.4348 53.2831 43.9106 53.8584 44.5167 54.2514C45.1228 54.6397 45.8211 54.8338 46.6119 54.8338C47.4026 54.8338 48.101 54.6397 48.707 54.2514C49.3131 53.8584 49.7866 53.2831 50.1275 52.5256C50.4731 51.7633 50.646 50.8305 50.646 49.7273ZM58.4212 42.4545V57H55.7862V42.4545H58.4212ZM73.2276 42.4545V57H70.8839L64.0302 47.0923H63.9094V57H61.2745V42.4545H63.6325L70.479 52.3693H70.6069V42.4545H73.2276Z" fill="white"/>
</svg>
